<?xml version="1.0" standalone="no"?>
<!DOCTYPE svg PUBLIC "-//W3C//DTD SVG 20010904//EN"
 "http://www.w3.org/TR/2001/REC-SVG-20010904/DTD/svg10.dtd">
<svg version="1.0" xmlns="http://www.w3.org/2000/svg"
 width="512.000000pt" height="512.000000pt" viewBox="0 0 512.000000 512.000000"
 preserveAspectRatio="xMidYMid meet">

<g transform="translate(0.000000,512.000000) scale(0.100000,-0.100000)"
fill="#000000" stroke="none">
<path d="M2380 4940 c-587 -49 -1136 -306 -1531 -717 -362 -377 -582 -830
-655 -1348 -23 -162 -23 -468 0 -630 77 -546 329 -1040 719 -1411 782 -743
1962 -873 2880 -316 170 103 304 209 452 357 664 662 878 1645 549 2522 -163
434 -448 810 -831 1095 -221 164 -536 310 -827 384 -217 55 -540 83 -756 64z
m-54 -1191 c57 -18 77 -31 129 -82 74 -74 105 -146 111 -252 l4 -70 -19 52
c-44 119 -116 189 -230 223 -128 39 -243 8 -335 -90 l-47 -50 20 -37 c25 -49
66 -88 113 -107 21 -9 39 -16 41 -16 2 0 18 23 36 50 32 50 92 100 120 100 23
0 51 -31 51 -57 0 -14 -15 -39 -39 -62 -74 -73 -94 -145 -66 -235 26 -83 4
-130 -54 -111 -25 8 -58 87 -63 150 -3 50 -3 50 -52 67 -61 22 -110 59 -149
114 -29 41 -34 44 -77 44 -141 0 -286 -111 -323 -247 -24 -90 -37 -23 -16 79
36 167 161 284 316 295 85 7 98 14 124 64 44 87 133 162 219 185 66 18 110 17
186 -7z m664 -4 c19 -17 24 -34 78 -296 l28 -135 -56 23 c-56 22 -207 53 -261
53 l-29 0 0 174 c0 170 1 175 23 191 31 23 189 16 217 -10z m697 -407 c23 -27
183 -302 183 -317 0 -5 -64 -67 -142 -137 l-143 -128 3 -52 c2 -30 -1 -55 -7
-58 -7 -5 -11 3 -11 21 -1 150 -149 421 -289 528 l-52 40 183 62 c204 69 244
75 275 41z m-805 -159 c29 -6 95 -31 145 -55 387 -185 473 -706 168 -1009
-105 -104 -239 -169 -377 -182 l-68 -6 0 70 c0 40 5 76 13 85 6 8 39 20 71 27
88 17 160 54 227 117 131 126 177 287 131 455 -25 90 -59 145 -135 216 -68 63
-150 104 -237 118 -65 11 -70 17 -70 101 l0 74 40 0 c21 0 63 -5 92 -11z
m-1351 -178 c56 -57 120 -85 206 -89 82 -5 124 7 192 52 65 44 75 47 100 29
17 -11 21 -23 19 -51 -3 -32 -10 -42 -55 -72 -46 -32 -51 -38 -46 -65 8 -44
48 -109 80 -130 15 -10 47 -23 72 -30 61 -15 83 -50 58 -89 -36 -54 -150 -25
-231 59 -40 41 -86 131 -86 168 0 9 -18 12 -69 9 -107 -6 -229 37 -291 103
-22 24 -23 26 -6 44 13 14 17 32 14 61 -2 22 -2 40 1 40 2 0 21 -18 42 -39z
m969 -294 l65 -22 3 -63 3 -63 -50 26 c-40 20 -65 25 -123 25 -40 0 -88 -4
-106 -10 -29 -8 -37 -6 -58 15 -29 29 -30 46 -6 74 36 43 170 52 272 18z
m-790 -146 c5 -11 10 -32 10 -47 0 -87 63 -174 140 -193 25 -6 51 -15 59 -19
22 -13 30 -47 17 -73 -22 -45 -107 -38 -185 16 l-50 34 -21 -34 c-22 -36 -125
-135 -141 -135 -12 0 -36 39 -44 72 -6 22 0 32 40 69 25 24 58 62 72 86 25 43
25 46 13 119 -10 66 -10 78 4 100 21 30 70 33 86 5z m2017 -212 c81 -73 147
-137 145 -143 -10 -33 -177 -309 -195 -321 -32 -22 -48 -19 -203 32 l-141 47
59 74 c96 121 178 311 178 414 0 15 2 28 4 28 3 0 71 -59 153 -131z m-1525 84
c10 -9 18 -30 18 -47 0 -102 83 -206 164 -206 34 0 56 -25 56 -66 0 -47 -30
-61 -97 -45 -26 7 -58 19 -71 27 -19 13 -26 13 -53 -2 -56 -29 -162 -145 -202
-221 -21 -40 -40 -73 -43 -73 -2 0 -17 20 -33 45 -15 24 -31 41 -35 37 -16
-15 16 52 49 103 37 59 117 144 174 186 l35 26 -22 51 c-31 71 -34 168 -8 188
26 18 45 18 68 -3z m868 -657 c0 -26 -50 -248 -61 -267 -17 -32 -44 -39 -153
-39 l-106 0 0 128 0 128 93 12 c51 6 119 20 152 31 75 24 75 24 75 7z"/>
</g>
</svg>
